# xmcd CD database file
#
# Track frame offsets:
#	150
#	16612
#	33832
#	52087
#	71510
#	87377
#	106270
#	118770
#	131535
#	145877
#	162137
#
# Disc length: 2344 seconds
#
# Revision: 1
# Processed by: cddbd v1.5.2PL0 Copyright (c) Steve Scherf et al.
# Submitted via: CDex 1.79
#
DISCID=8c09260b
DTITLE=Dallas Wayne - The Invisible Man
DYEAR=1900
DGENRE=Country
TTITLE0=Invisible Man
TTITLE1=Heart Like Mine
TTITLE2=That Should Be Me And You
TTITLE3=Hoedown In Hell
TTITLE4=Call Me
TTITLE5=Everybody Knows It But You
TTITLE6=Straighten Up [And Lie Right]
TTITLE7=God Must've Got Drunk
TTITLE8=Times Like These
TTITLE9=Tell Me
TTITLE10=I Hit The Road [And The Road Hit Back]
EXTD=
EXTT0=
EXTT1=
EXTT2=
EXTT3=
EXTT4=
EXTT5=
EXTT6=
EXTT7=
EXTT8=
EXTT9=
EXTT10=
PLAYORDER=
